<svg xmlns="http://www.w3.org/2000/svg" viewBox="0 0 1200 1200">
  <defs>
    <linearGradient id="bed" x1="0" y1="0" x2="1" y2="1">
      <stop offset="0" stop-color="#f7efe3"/>
      <stop offset="1" stop-color="#d8c4a4"/>
    </linearGradient>
    <radialGradient id="fur" cx="54%" cy="46%" r="58%">
      <stop offset="0" stop-color="#f4b46d"/>
      <stop offset=".48" stop-color="#d48239"/>
      <stop offset="1" stop-color="#8c552f"/>
    </radialGradient>
    <filter id="soft">
      <feGaussianBlur stdDeviation="5"/>
    </filter>
  </defs>
  <rect width="1200" height="1200" fill="url(#bed)"/>
  <ellipse cx="690" cy="740" rx="420" ry="260" fill="#ffffff" opacity=".62"/>
  <ellipse cx="610" cy="650" rx="370" ry="245" fill="url(#fur)"/>
  <ellipse cx="500" cy="520" rx="185" ry="150" fill="#df8b42"/>
  <path d="M390 405 440 275 520 420Z" fill="#d8823b"/>
  <path d="M540 395 665 285 635 465Z" fill="#c97939"/>
  <path d="M435 440c78-48 194-28 233 48 33 64 4 146-72 182-83 39-211 18-254-58-36-64 3-137 93-172Z" fill="#f6c285"/>
  <path d="M445 585c62 30 126 28 192-4-28 74-162 78-192 4Z" fill="#fff3e6"/>
  <circle cx="500" cy="515" r="17" fill="#3e2a22"/>
  <circle cx="612" cy="520" r="17" fill="#3e2a22"/>
  <path d="M552 548c14 12 30 12 44 0" stroke="#9f5b45" stroke-width="13" fill="none" stroke-linecap="round"/>
  <path d="M380 775c210 115 476 114 668 20" stroke="#f2d5b0" stroke-width="70" stroke-linecap="round" fill="none" opacity=".54" filter="url(#soft)"/>
</svg>
