<svg xmlns="http://www.w3.org/2000/svg" viewBox="0 0 1200 1200">
  <defs>
    <linearGradient id="room" x1="0" y1="0" x2="1" y2="1">
      <stop offset="0" stop-color="#ebe3d9"/>
      <stop offset="1" stop-color="#c9bbaa"/>
    </linearGradient>
    <radialGradient id="grayfur" cx="50%" cy="45%" r="62%">
      <stop offset="0" stop-color="#bfc0bb"/>
      <stop offset=".55" stop-color="#77746d"/>
      <stop offset="1" stop-color="#34312d"/>
    </radialGradient>
    <filter id="shadow">
      <feGaussianBlur stdDeviation="8"/>
    </filter>
  </defs>
  <rect width="1200" height="1200" fill="url(#room)"/>
  <rect x="105" y="210" width="990" height="650" rx="72" fill="#f8f4ec" opacity=".5"/>
  <ellipse cx="590" cy="720" rx="430" ry="250" fill="#4e4b45" opacity=".18" filter="url(#shadow)"/>
  <ellipse cx="560" cy="650" rx="385" ry="255" fill="url(#grayfur)"/>
  <ellipse cx="735" cy="525" rx="178" ry="142" fill="#85837e"/>
  <path d="M640 425 680 292 770 422Z" fill="#7c7a75"/>
  <path d="M792 415 914 302 890 477Z" fill="#6f6d69"/>
  <path d="M682 553c78-26 151-18 222 24-20 94-162 130-222-24Z" fill="#f2eee8"/>
  <circle cx="718" cy="514" r="15" fill="#262420"/>
  <circle cx="835" cy="518" r="15" fill="#262420"/>
  <path d="M775 548c18 14 36 14 53 0" stroke="#5d514a" stroke-width="12" fill="none" stroke-linecap="round"/>
  <path d="M270 725c160 86 320 106 534 58" stroke="#a4a29d" stroke-width="54" stroke-linecap="round" fill="none" opacity=".56"/>
</svg>
